<?xml version="1.0" encoding="UTF-8" standalone="no"?>
<svg xmlns="http://www.w3.org/2000/svg" xmlns:xlink="http://www.w3.org/1999/xlink" width="16" height="16" viewBox="0 0 16 16">
    <path d="M8,1 C4.14,1 1,4.14 1,8 C1,11.86 4.14,15 8,15 C11.86,15 15,11.86 15,8 C15,4.14 11.86,1 8,1 Z M12.5,5 L9.5,5 C9.36,4.34 9.17,3.69 8.88,3.12 C10.4,3.48 11.64,4.21 12.5,5 Z M8,2.57 C8.5,3.24 8.89,4.06 9.11,5 L6.89,5 C7.11,4.06 7.5,3.24 8,2.57 Z M2.5,9 C2.4,8.69 2.3,8.35 2.3,8 C2.3,7.65 2.4,7.31 2.5,7 L5.97,7 C5.92,7.33 5.9,7.66 5.9,8 C5.9,8.34 5.92,8.67 5.97,9 L2.5,9 Z M3.5,11 C4.36,11.79 5.6,12.52 7.12,12.88 C6.83,12.31 6.64,11.66 6.5,11 L3.5,11 Z M3.5,5 L6.5,5 C6.64,4.34 6.83,3.69 7.12,3.12 C5.6,3.48 4.36,4.21 3.5,5 Z M8,13.43 C7.5,12.76 7.11,11.94 6.89,11 L9.11,11 C8.89,11.94 8.5,12.76 8,13.43 Z M9.28,9 L6.72,9 C6.66,8.67 6.6,8.34 6.6,8 C6.6,7.66 6.66,7.33 6.72,7 L9.28,7 C9.34,7.33 9.4,7.66 9.4,8 C9.4,8.34 9.34,8.67 9.28,9 Z M9.5,11 L12.5,11 C11.64,11.79 10.4,12.52 8.88,12.88 C9.17,12.31 9.36,11.66 9.5,11 Z M10.03,9 C10.08,8.67 10.1,8.34 10.1,8 C10.1,7.66 10.08,7.33 10.03,7 L13.5,7 C13.6,7.31 13.7,7.65 13.7,8 C13.7,8.35 13.6,8.69 13.5,9 L10.03,9 Z" 
    fill="#FFFFFF" />
</svg> 