<?xml version="1.0" standalone="no"?><!DOCTYPE svg PUBLIC "-//W3C//DTD SVG 1.1//EN" "http://www.w3.org/Graphics/SVG/1.1/DTD/svg11.dtd"><svg t="1746720087040" class="icon" viewBox="0 0 1024 1024" version="1.1" xmlns="http://www.w3.org/2000/svg" p-id="3541" xmlns:xlink="http://www.w3.org/1999/xlink" width="200" height="200"><path d="M774.264471 691.471059l90.864941 45.417412a26.352941 26.352941 0 0 1-20.540236 48.459294l-3.041882-1.295059-92.79247-46.441412-110.742589 63.277177v0.030117l-122.970353 70.264471a26.503529 26.503529 0 0 1-2.800941 1.415529l-0.421647 0.150588a24.696471 24.696471 0 0 1-2.770823 0.963765l-0.39153 0.090353a26.202353 26.202353 0 0 1-0.210823 0.060235l-1.686589 0.361412a26.352941 26.352941 0 0 1-1.415529 0.210824l-3.373176 0.240941a26.383059 26.383059 0 0 1-6.505412-0.813177l-0.210824-0.060235-0.391529-0.090353a26.142118 26.142118 0 0 1-5.963294-2.529882l2.710588 1.385412a26.232471 26.232471 0 0 1-2.409412-1.204706l-0.301176-0.180706-123.000471-70.264471-110.742588-63.307294-92.762353 46.441412a26.352941 26.352941 0 0 1-26.443294-45.477647l2.861176-1.686588 90.834824-45.417412v-265.155765c0-0.752941 0.060235-1.505882 0.12047-2.258823l0.120471-0.90353 0.060235-0.421647a26.292706 26.292706 0 0 1 12.950589-18.944l-2.017883 1.295059a26.262588 26.262588 0 0 1 1.475765-0.963765l0.572235-0.331294 122.970353-70.26447 109.688471-62.704942V180.705882a26.352941 26.352941 0 0 1 52.525176-3.312941l0.210824 3.312941-0.030118 90.112 109.718588 62.704942 80.112941 45.748705 42.857412 24.515765a26.443294 26.443294 0 0 1 0.993883 0.602353l1.024 0.722824 0.903529 0.602353a26.292706 26.292706 0 0 1 10.360471 20.961882l-0.210824-3.343059a26.202353 26.202353 0 0 1 0.180706 1.716706l0.030118 1.626353v264.794353z m-491.91153 0.993882l193.234824 110.411294v-220.370823l-193.234824-110.441412v220.400941z m439.205647-220.400941l-193.264941 110.441412v220.370823l193.264941-110.411294v-220.400941z m-219.617882-155.617882l-109.899294 62.825411-82.522353 47.134118-0.39153 0.240941 192.813177 110.200471 192.843294-110.200471-0.421647-0.240941-82.522353-47.134118-109.899294-62.825411z" fill="#333333" p-id="3542"></path></svg>